<?xml version="1.0" encoding="UTF-8"?>
<svg width="98px" height="22px" viewBox="0 0 98 22" version="1.1" xmlns="http://www.w3.org/2000/svg" xmlns:xlink="http://www.w3.org/1999/xlink">
    <!-- Generator: Sketch 51.3 (57544) - http://www.bohemiancoding.com/sketch -->
    <title>Brand</title>
    <desc>Created with Sketch.</desc>
    <defs></defs>
    <g id="Symbols" stroke="none" stroke-width="1" fill="none" fill-rule="evenodd">
        <g id="Theme-Copy" transform="translate(-240.000000, -21.000000)" fill="#FFFFFF">
            <g id="Navbar">
                <g id="Brand" transform="translate(240.000000, 17.000000)">
                    <path d="M2.71249995,6.89999988 L0,6.89999988 C0,12.1185935 4.25099602,16.3499997 9.49374984,16.3499997 L9.49374984,22.4249996 C9.49374984,22.7962496 9.79890608,23.0999996 10.1718748,23.0999996 L11.5281248,23.0999996 C11.9010935,23.0999996 12.2062498,22.7962496 12.2062498,22.4249996 L12.2062498,16.3499997 C12.2062498,11.1314061 7.95525377,6.89999988 2.71249995,6.89999988 Z M18.9874997,4.19999993 C15.4188669,4.19999993 12.3164451,6.16171865 10.6931834,9.05999985 C11.8671873,10.3340623 12.7360349,11.8823435 13.1937693,13.5993748 C17.9703122,13.105781 21.6999996,9.0895311 21.6999996,4.19999993 L18.9874997,4.19999993 Z" id="Shape" fill-rule="nonzero"></path>
                    <text id="Sprout" font-family="HelveticaNeue-Medium, Helvetica 65 Medium" font-size="22.3999996" font-weight="normal">
                        <tspan x="28.6999995" y="21">Sprout</tspan>
                    </text>
                </g>
            </g>
        </g>
    </g>
</svg>